<?xml version="1.0" encoding="utf-8"?>
<!-- Generator: Adobe Illustrator 26.1.0, SVG Export Plug-In . SVG Version: 6.00 Build 0)  -->
<svg version="1.1" id="Capa_1" xmlns="http://www.w3.org/2000/svg" xmlns:xlink="http://www.w3.org/1999/xlink" x="0px" y="0px"
	 viewBox="0 0 50 50" style="enable-background:new 0 0 50 50;" xml:space="preserve">
<style type="text/css">
	.st0{fill:#FFFFFF;}
</style>
<g>
	<ellipse transform="matrix(0.9925 -0.1222 0.1222 0.9925 -2.8673 3.2419)" cx="25" cy="25" rx="25" ry="25"/>
	<g>
		<g>
			<path class="st0" d="M32.8,15.5c-0.9,0-1.7,0.8-1.7,1.7c0,0.9,0.8,1.7,1.7,1.7c0.9,0,1.7-0.8,1.7-1.7
				C34.5,16.3,33.7,15.5,32.8,15.5z"/>
			<path class="st0" d="M25.1,17.7c-4,0-7.2,3.2-7.2,7.2c0,4,3.2,7.2,7.2,7.2c4,0,7.2-3.2,7.2-7.2C32.3,21,29.1,17.7,25.1,17.7z
				 M25.1,29.6c-2.5,0-4.6-2.1-4.6-4.6c0-2.5,2.1-4.6,4.6-4.6c2.5,0,4.6,2.1,4.6,4.6C29.7,27.5,27.7,29.6,25.1,29.6z"/>
			<path class="st0" d="M30.9,39.6H19.1c-4.9,0-8.8-3.9-8.8-8.8V19.1c0-4.9,3.9-8.8,8.8-8.8h11.7c4.9,0,8.8,3.9,8.8,8.8v11.7
				C39.7,35.7,35.7,39.6,30.9,39.6z M19.1,13.1c-3.3,0-6,2.7-6,6v11.7c0,3.3,2.7,6,6,6h11.7c3.3,0,6-2.7,6-6V19.1c0-3.3-2.7-6-6-6
				H19.1z"/>
		</g>
	</g>
</g>
</svg>
