<?xml version="1.0" encoding="utf-8"?>
<!-- Generator: Adobe Illustrator 26.1.0, SVG Export Plug-In . SVG Version: 6.00 Build 0)  -->
<svg version="1.1" id="Capa_1" xmlns="http://www.w3.org/2000/svg" xmlns:xlink="http://www.w3.org/1999/xlink" x="0px" y="0px"
	 viewBox="0 0 152.4 54" style="enable-background:new 0 0 152.4 54;" xml:space="preserve">
<style type="text/css">
	.st0{fill:#FFFFFF;}
	.st1{fill:#7A437C;}
</style>
<g>
	<path class="st0" d="M15.4,54c-0.1,0-0.2,0-0.3,0C6.6,53.9,0.1,48.2,0,45.5c0-0.4,0.2-0.9,0.5-1.2c0.3-0.3,0.7-0.5,1.2-0.4
		c4,0.2,12-3.8,16.4-12c1.2-2.2,2.1-4.2,2.8-6.1c-1.7-0.8-3.7-1.3-5.7-1.3c-5.3,0-10.1,3.2-12.2,8.1c-0.3,0.7-1,1.1-1.7,0.9
		C0.5,33.3,0,32.7,0,31.9C0,20.2,0.1,15.6,0.1,15c0-0.8-0.2-7.3,4-11.5C6.5,1.1,9.9-0.1,14,0c0,0,0.1,0,0.1,0
		c1.7,0.2,7.3,1.3,10.4,7.1c1.7,3.3,2.9,8.8,0.1,17.3c4.1,3,6.8,7.8,6.8,13.3c0,4.4-1.7,8.6-4.9,11.7C23.5,52.4,19.6,54,15.4,54z
		 M4.3,46.7c1.8,1.7,5.5,4.1,10.8,4.1c3.4,0.1,6.7-1.3,9.2-3.7c2.6-2.5,4-5.9,4-9.5c0-4.1-1.9-7.8-4.8-10.2
		c-0.7,1.8-1.6,3.8-2.7,5.9C16.8,40.8,9.8,45.6,4.3,46.7z M3.1,45.2 M13.5,3.1c-3,0-5.4,0.9-7.1,2.6C3,9.2,3.2,14.9,3.3,14.9
		c0,0,0,0.1,0,0.1c0,0-0.1,3.1-0.1,11.6c3-3.3,7.4-5.3,12-5.3c2.4,0,4.7,0.5,6.7,1.5c2.2-7.1,1.3-11.6-0.1-14.3
		c-1.9-3.5-5.3-5.1-7.9-5.4C13.7,3.1,13.6,3.1,13.5,3.1z"/>
	<path class="st0" d="M68.4,7.1v34.5h-3.2l-0.1-4.9c-2,3.5-5.7,5.3-9.6,5.3c-6.9,0-12.3-4.5-12.3-12.6c0-8.1,5.4-12.6,12.3-12.6
		c3.8,0,7.7,1.7,9.6,5.3v-15H68.4z M46.6,29.4c0,6.1,4.1,9.5,9.2,9.5c5.2,0,9.2-3.8,9.2-9.5c0-5.6-4-9.4-9.2-9.4
		C50.7,20,46.6,23.2,46.6,29.4z"/>
	<path class="st0" d="M98.6,29.5C98.6,37,93.2,42,86,42c-7.1,0-12.5-5-12.5-12.5c0-7.5,5.2-12.7,12.5-12.7
		C93.1,16.8,98.6,21.9,98.6,29.5z M76.8,29.5c0,5.7,3.8,9.4,9.2,9.4c5.5,0,9.2-3.7,9.2-9.4c0-5.6-3.8-9.7-9.2-9.7
		C80.6,19.8,76.8,23.8,76.8,29.5z"/>
	<path class="st0" d="M119.5,22.2c-2.3-2.1-4.6-2.5-7.2-2.5c-3.5,0-6.7,1.2-6.6,3.9c0,2.9,3.6,3.5,6.6,4c4.4,0.6,10,1.4,10,7.3
		c-0.1,5.1-5.1,7.1-10,7.1c-4.2,0-8.3-1.4-10.8-4.7l2.1-2.3c2.1,2.8,5.7,3.9,8.8,3.9c2.8,0,6.6-0.8,6.6-4.1c0-3.2-3.2-3.8-7-4.3
		c-4.7-0.7-9.6-1.8-9.6-6.8c0-5,5-7.1,9.8-7c3.6,0,6.6,1,9.2,3.3L119.5,22.2z"/>
	<path class="st1" d="M130.6,7.1v15c1.8-3.6,5.8-5.3,9.6-5.3c6.8,0,12.3,4.5,12.3,12.6c0,8.1-5.4,12.6-12.3,12.6
		c-3.8,0-7.3-1.3-9.6-5.1l-0.2,4.7h-3.1V7.1H130.6z M130.7,29.4c0,5.7,4,9.5,9.3,9.5c5,0,9.2-3.3,9.2-9.5c0-6.2-4.1-9.5-9.2-9.5
		C134.7,20,130.7,23.8,130.7,29.4z"/>
</g>
</svg>
